<svg id="svg" xmlns="http://www.w3.org/2000/svg" xmlns:xlink="http://www.w3.org/1999/xlink" width="18px" height="18px" viewBox="0, 0, 400,400"><g id="svgg"><path id="path0" d="M100.000 1.758 C 93.799 5.072,92.020 9.073,91.571 20.716 L 91.195 30.469 80.856 30.469 C 42.647 30.469,13.592 51.220,2.578 86.376 L 0.391 93.359 0.150 211.719 C -0.111 340.379,-0.236 336.281,4.365 349.173 C 12.581 372.194,31.290 389.712,55.887 397.416 L 62.891 399.609 199.609 399.609 L 336.328 399.609 342.488 397.825 C 367.854 390.478,387.221 372.749,395.635 349.173 C 400.236 336.281,400.111 340.379,399.850 211.719 L 399.609 93.359 397.409 86.328 C 386.421 51.219,357.347 30.469,319.144 30.469 L 308.805 30.469 308.429 20.716 C 307.841 5.440,302.929 -0.463,291.321 0.155 C 280.491 0.731,277.057 5.403,276.697 20.056 L 276.441 30.469 200.000 30.469 L 123.559 30.469 123.303 20.056 C 123.069 10.562,122.881 9.402,121.164 6.900 C 116.562 0.192,107.191 -2.084,100.000 1.758 M91.406 77.305 C 91.406 102.402,96.106 110.169,110.148 108.281 C 121.081 106.811,123.408 101.833,123.425 79.883 L 123.438 62.500 200.000 62.500 L 276.563 62.500 276.575 79.883 C 276.592 101.833,278.919 106.811,289.852 108.281 C 303.894 110.169,308.594 102.402,308.594 77.305 L 308.594 62.500 318.234 62.500 C 349.537 62.500,367.054 79.804,368.517 112.170 L 368.991 122.656 200.000 122.656 L 31.009 122.656 31.483 112.170 C 32.944 79.854,50.236 62.678,81.445 62.543 L 91.406 62.500 91.406 77.305 M368.568 242.383 C 368.338 324.767,368.237 330.338,366.899 334.375 C 361.460 350.783,349.225 362.769,333.872 366.730 C 326.561 368.616,73.439 368.616,66.128 366.730 C 50.775 362.769,38.540 350.783,33.101 334.375 C 31.763 330.338,31.662 324.767,31.432 242.383 L 31.187 154.688 200.000 154.688 L 368.813 154.688 368.568 242.383 M85.938 200.876 C 75.403 205.064,73.416 220.113,82.359 227.965 C 86.087 231.238,87.291 231.375,109.890 231.099 L 129.546 230.859 132.546 228.470 C 142.197 220.786,140.421 204.979,129.441 200.831 C 126.617 199.764,88.636 199.803,85.938 200.876 M177.734 201.092 C 167.446 205.780,165.495 219.773,174.053 227.495 C 178.242 231.275,179.062 231.381,202.078 231.099 L 221.734 230.859 224.734 228.470 C 233.273 221.672,233.272 209.578,224.734 202.780 L 221.733 200.391 200.906 200.207 C 184.644 200.064,179.564 200.258,177.734 201.092 M269.922 201.088 C 259.364 205.886,258.006 220.948,267.454 228.470 L 270.454 230.859 290.110 231.099 C 312.709 231.375,313.913 231.238,317.641 227.965 C 326.063 220.571,325.376 208.927,316.110 202.004 C 313.332 199.928,274.183 199.152,269.922 201.088 M88.041 292.485 C 75.684 295.928,72.490 311.487,82.359 320.153 C 86.087 323.426,87.291 323.563,109.890 323.287 L 129.546 323.047 132.546 320.658 C 142.280 312.908,140.482 297.534,129.297 292.873 C 125.794 291.413,92.994 291.104,88.041 292.485 M181.097 292.111 C 167.426 294.942,164.386 312.698,176.077 321.434 C 179.363 323.889,217.817 324.348,222.421 321.987 C 234.476 315.806,233.905 298.049,221.484 292.873 C 218.789 291.749,185.845 291.128,181.097 292.111 M276.172 291.795 C 275.742 291.940,274.065 292.281,272.444 292.553 C 260.306 294.584,257.136 312.446,267.455 320.658 L 270.458 323.047 292.188 323.047 L 313.917 323.047 316.920 320.658 C 327.851 311.959,324.336 295.134,310.990 292.272 C 307.425 291.507,278.200 291.107,276.172 291.795 " stroke="none" fill="#757D8A" fill-rule="evenodd"></path></g></svg>