<?xml version="1.0" standalone="no"?>
<!DOCTYPE svg PUBLIC "-//W3C//DTD SVG 20010904//EN"
 "http://www.w3.org/TR/2001/REC-SVG-20010904/DTD/svg10.dtd">
<svg version="1.0" xmlns="http://www.w3.org/2000/svg"
 width="18px" height="18px" viewBox="0 0 512.000000 512.000000"
 preserveAspectRatio="xMidYMid meet">

<g transform="translate(0.000000,512.000000) scale(0.100000,-0.100000)"
fill="#757D8A" stroke="none">
<path d="M2335 4789 c-208 -21 -442 -81 -640 -164 -903 -378 -1455 -1299
-1364 -2275 47 -506 262 -974 618 -1343 350 -362 770 -579 1286 -663 153 -25
485 -25 645 -1 642 99 1188 447 1545 982 232 347 366 770 369 1162 1 143 -4
160 -68 207 -27 21 -35 21 -1017 24 l-989 2 -2 989 c-3 982 -3 990 -24 1017
-44 59 -67 69 -172 71 -53 0 -137 -3 -187 -8z m67 -1303 c3 -977 3 -985 24
-1012 11 -15 33 -37 48 -48 27 -21 35 -21 1012 -24 l984 -2 0 -29 c0 -41 -27
-192 -51 -286 -33 -129 -67 -222 -129 -353 -192 -400 -501 -710 -901 -901
-251 -120 -481 -177 -759 -188 -603 -24 -1193 247 -1572 722 -163 205 -292
464 -357 720 -45 177 -55 262 -55 475 0 213 10 298 55 475 81 316 245 612 474
854 241 255 599 459 950 540 108 25 187 38 237 40 l38 1 2 -984z"/>
<path d="M2961 4718 c-19 -12 -44 -36 -55 -51 -21 -28 -21 -32 -21 -857 0
-821 0 -829 21 -856 11 -15 33 -37 48 -48 27 -21 35 -21 856 -21 825 0 829 0
857 21 15 11 39 36 51 55 34 48 26 120 -32 294 -226 677 -754 1205 -1431 1431
-174 58 -246 66 -294 32z m419 -426 c312 -149 597 -398 786 -687 55 -85 148
-264 183 -352 l21 -53 -585 0 -585 0 0 585 0 585 48 -19 c26 -10 85 -37 132
-59z"/>
</g>
</svg>
