<?xml version="1.0" standalone="no"?>
<!DOCTYPE svg PUBLIC "-//W3C//DTD SVG 20010904//EN"
 "http://www.w3.org/TR/2001/REC-SVG-20010904/DTD/svg10.dtd">
<svg version="1.0" xmlns="http://www.w3.org/2000/svg"
 width="18px" height="18px" viewBox="0 0 512.000000 512.000000"
 preserveAspectRatio="xMidYMid meet">

<g transform="translate(0.000000,512.000000) scale(0.100000,-0.100000)"
fill="#757D8A" stroke="none">
<path d="M224 5106 c-58 -18 -126 -68 -163 -118 -66 -89 -61 86 -59 -2448 l3
-2305 24 -50 c32 -63 93 -124 156 -156 l50 -24 2325 0 2325 0 47 22 c60 27
127 95 159 158 l24 50 0 2325 0 2325 -23 46 c-34 70 -87 125 -150 156 l-57 28
-2310 2 c-1861 1 -2318 -1 -2351 -11z m1366 -691 l0 -375 -630 0 -630 0 0 375
0 375 630 0 630 0 0 -375z m1620 0 l0 -375 -650 0 -650 0 0 375 0 375 650 0
650 0 0 -375z m1580 0 l0 -375 -630 0 -630 0 0 375 0 375 630 0 630 0 0 -375z
m-3200 -2245 l0 -1540 160 0 160 0 2 1538 3 1537 1438 3 1437 2 0 -1690 0
-1690 -630 0 -630 0 0 1520 0 1520 -160 0 -160 0 0 -1520 0 -1520 -1440 0
-1440 0 0 1690 0 1690 630 0 630 0 0 -1540z"/>
<path d="M620 4430 l0 -160 340 0 340 0 0 160 0 160 -340 0 -340 0 0 -160z"/>
<path d="M2220 4430 l0 -160 340 0 340 0 0 160 0 160 -340 0 -340 0 0 -160z"/>
<path d="M3830 4430 l0 -160 340 0 340 0 0 160 0 160 -340 0 -340 0 0 -160z"/>
<path d="M610 2985 l0 -165 340 0 340 0 0 165 0 165 -340 0 -340 0 0 -165z"/>
<path d="M2210 2985 l0 -165 340 0 340 0 0 165 0 165 -340 0 -340 0 0 -165z"/>
<path d="M3820 2985 l0 -165 338 2 337 3 3 163 2 162 -340 0 -340 0 0 -165z"/>
<path d="M2210 2015 l0 -165 340 0 340 0 0 165 0 165 -340 0 -340 0 0 -165z"/>
<path d="M617 2163 c-4 -3 -7 -78 -7 -165 l0 -158 340 0 340 0 0 165 0 165
-333 0 c-184 0 -337 -3 -340 -7z"/>
<path d="M3820 2005 l0 -165 340 0 340 0 -2 163 -3 162 -337 3 -338 2 0 -165z"/>
<path d="M2210 1050 l0 -160 340 0 340 0 0 160 0 160 -340 0 -340 0 0 -160z"/>
</g>
</svg>
