<?xml version="1.0" standalone="no"?>
<!DOCTYPE svg PUBLIC "-//W3C//DTD SVG 20010904//EN"
 "http://www.w3.org/TR/2001/REC-SVG-20010904/DTD/svg10.dtd">
<svg version="1.0" xmlns="http://www.w3.org/2000/svg"
 width="20px" height="20px" viewBox="0 0 512.000000 512.000000"
 preserveAspectRatio="xMidYMid meet">

<g transform="translate(0.000000,512.000000) scale(0.100000,-0.100000)"
fill="#757D8A" stroke="none">
<path d="M2094 4141 c-23 -10 -50 -32 -61 -47 -10 -16 -154 -331 -318 -701
l-299 -672 -297 -3 c-283 -3 -299 -4 -325 -24 -53 -39 -69 -71 -69 -134 0 -63
16 -95 69 -134 26 -20 42 -21 379 -24 194 -2 367 0 385 3 75 14 84 30 327 578
125 281 231 516 235 520 4 4 14 -16 22 -45 8 -29 163 -584 344 -1233 320
-1148 330 -1180 364 -1216 39 -41 87 -56 147 -44 76 14 86 32 407 758 l300
676 297 3 c283 3 299 4 325 24 53 39 69 71 69 134 0 63 -16 95 -69 134 -26 20
-42 21 -384 24 -227 2 -370 -1 -392 -7 -20 -6 -47 -23 -62 -38 -19 -21 -340
-723 -475 -1042 -8 -18 -16 -32 -18 -30 -2 2 -157 558 -345 1234 -213 764
-350 1241 -363 1259 -22 31 -88 66 -127 66 -14 0 -43 -9 -66 -19z"/>
</g>
</svg>
